HIERARCHY
ROOT Hips
{
    OFFSET 0.000000 0.000000 0.000000
    CHANNELS 6 Xposition Yposition Zposition Zrotation Xrotation Yrotation
    JOINT Spine
    {
        OFFSET -0.000000 14.517291 0.000000
        CHANNELS 3 Zrotation Xrotation Yrotation
        JOINT Spine1
        {
            OFFSET -0.000000 37.558300 0.000000
            CHANNELS 3 Zrotation Xrotation Yrotation
            JOINT Neck
            {
                OFFSET -0.000000 37.404057 3.400369
                CHANNELS 3 Zrotation Xrotation Yrotation
                JOINT Head
                {
                    OFFSET -0.000000 24.785618 -3.540803
                    CHANNELS 3 Zrotation Xrotation Yrotation
                    End Site
                    {
                        OFFSET -0.000000 35.408028 0.000000
                    }
                }
            }
            JOINT LeftShoulder
            {
                OFFSET 6.992933 33.973492 -0.192664
                CHANNELS 3 Zrotation Xrotation Yrotation
                JOINT LeftArm
                {
                    OFFSET 21.527611 0.000000 0.000000
                    CHANNELS 3 Zrotation Xrotation Yrotation
                    JOINT LeftForeArm
                    {
                        OFFSET 56.353916 0.000000 0.000000
                        CHANNELS 3 Zrotation Xrotation Yrotation
                        JOINT LeftHand
                        {
                            OFFSET 47.774071 0.000000 0.000000
                            CHANNELS 3 Zrotation Xrotation Yrotation
                            End Site
                            {
                                OFFSET 26.556021 0.000000 0.000000
                            }
                        }
                    }
                }
            }
            JOINT RightShoulder
            {
                OFFSET -7.065357 33.973492 -0.192664
                CHANNELS 3 Zrotation Xrotation Yrotation
                JOINT RightArm
                {
                    OFFSET -21.527611 0.000000 0.000000
                    CHANNELS 3 Zrotation Xrotation Yrotation
                    JOINT RightForeArm
                    {
                        OFFSET -56.353916 0.000000 0.000000
                        CHANNELS 3 Zrotation Xrotation Yrotation
                        JOINT RightHand
                        {
                            OFFSET -47.774071 0.000000 0.000000
                            CHANNELS 3 Zrotation Xrotation Yrotation
                            End Site
                            {
                                OFFSET -26.556021 0.000000 0.000000
                            }
                        }
                    }
                }
            }
        }
    }
    JOINT LeftUpLeg
    {
        OFFSET 17.704014 0.000000 0.000000
        CHANNELS 3 Zrotation Xrotation Yrotation
        JOINT LeftLeg
        {
            OFFSET -0.000000 -81.181816 0.000000
            CHANNELS 3 Zrotation Xrotation Yrotation
            JOINT LeftFoot
            {
                OFFSET -0.000000 -62.821102 0.000000
                CHANNELS 3 Zrotation Xrotation Yrotation
                JOINT LeftToeBase
                {
                    OFFSET -0.000000 -11.507608 26.556021
                    CHANNELS 3 Zrotation Xrotation Yrotation
                    End Site
                    {
                        OFFSET -0.000000 0.000000 7.081605
                    }
                }
            }
        }
    }
    JOINT RightUpLeg
    {
        OFFSET -17.704014 0.000000 0.000000
        CHANNELS 3 Zrotation Xrotation Yrotation
        JOINT RightLeg
        {
            OFFSET -0.000000 -81.181816 0.000000
            CHANNELS 3 Zrotation Xrotation Yrotation
            JOINT RightFoot
            {
                OFFSET -0.000000 -62.821102 0.000000
                CHANNELS 3 Zrotation Xrotation Yrotation
                JOINT RightToeBase
                {
                    OFFSET -0.000000 -11.507608 26.556021
                    CHANNELS 3 Zrotation Xrotation Yrotation
                    End Site
                    {
                        OFFSET -0.000000 0.000000 7.081605
                    }
                }
            }
        }
    }
}
MOTION
Frames:    12
Frame Time:    0.008333
20.173195    120.992828    51.660477    8.292312    0.874577    -69.991234    0.219552    5.737230    -0.820113    -1.124910    -3.678048    -0.307512    19.243631    5.790382    13.656918    -14.643068    -3.218531    9.869221    11.542108    3.030281    -14.855664    -9.592216    -7.121330    -20.725588    17.896030    -2.050299    -42.185940    -3.607441    6.378152    -44.432678    -10.822355    -3.669646    -5.989175    30.503613    -27.560228    41.916378    6.114655    -22.626963    103.350845    17.172190    -25.257826    31.457523    55.396008    -33.160358    33.971668    -77.521919    59.580677    34.374691    3.288158    -26.298336    43.636200    0.000000    0.000000    0.000000    -52.335423    -32.106682    -30.920486    51.740650    75.801727    -46.579948    19.091875    -26.772558    14.103655    0.000000    0.000000    0.000000    
20.131315    121.749008    51.647991    8.274282    0.865361    -69.958595    0.230666    5.662425    -0.821530    -1.115561    -3.641554    -0.307181    19.219234    5.780266    13.660407    -14.636721    -3.183395    9.879014    11.507915    3.050391    -14.854061    -9.563302    -7.104093    -20.769091    17.853632    -2.003237    -42.175831    -3.569240    6.393682    -44.510426    -10.839575    -3.642238    -6.006914    30.486307    -27.576965    41.907734    6.141454    -22.585236    103.356842    17.128498    -25.256651    31.481583    54.819885    -32.990456    33.691425    -75.859016    59.407055    32.973583    3.091714    -26.025002    43.634918    0.000000    0.000000    0.000000    -51.797462    -31.909693    -30.663351    49.052174    75.361794    -44.122753    19.028086    -26.440454    13.841460    0.000000    0.000000    0.000000    
20.094568    122.510231    51.633060    8.266221    0.865433    -69.925835    0.261086    5.557461    -0.824119    -1.146847    -3.585074    -0.307927    19.245192    5.858118    13.650309    -14.699286    -3.264421    9.858788    11.524144    3.076187    -14.880080    -9.549407    -7.090978    -20.776960    17.848194    -1.965013    -42.197327    -3.611374    6.449775    -44.487183    -10.828462    -3.631645    -5.999598    30.435495    -27.612183    41.863968    6.173140    -22.537050    103.348091    17.086674    -25.256170    31.478821    54.255108    -32.845634    33.385517    -74.228363    59.213882    31.433643    2.962398    -25.734411    43.841633    0.000000    0.000000    0.000000    -51.272682    -31.707155    -30.374964    46.685810    74.826553    -41.907127    18.896322    -26.120649    13.487431    0.000000    0.000000    0.000000    
20.058887    123.278656    51.618160    8.259796    0.869586    -69.894943    0.289960    5.460196    -0.823084    -1.181530    -3.536775    -0.307688    19.279903    5.868413    13.661067    -14.738424    -3.256544    9.862762    11.560455    3.076075    -14.883677    -9.560713    -7.015518    -20.808622    17.853148    -1.985771    -42.221550    -3.599995    6.428869    -44.432331    -10.817463    -3.678670    -5.999420    30.348265    -27.547274    41.785950    6.131534    -22.592743    103.300751    17.160486    -25.232216    31.515965    53.692406    -32.684566    33.078609    -72.585594    58.964729    30.071823    2.746760    -25.449032    43.828598    0.000000    0.000000    0.000000    -50.747761    -31.505873    -30.070030    44.510067    74.247047    -39.916504    18.776243    -25.765989    13.163334    0.000000    0.000000    0.000000    
20.026026    124.053131    51.604771    8.263484    0.864794    -69.876198    0.285006    5.365804    -0.799753    -1.161405    -3.507503    -0.299348    19.249784    5.824334    13.648713    -14.720009    -3.173331    9.858636    11.535225    3.081189    -14.925515    -9.526383    -6.942456    -20.813227    17.851660    -1.997805    -42.226376    -3.618584    6.423176    -44.391785    -10.855772    -3.665354    -6.026596    30.305826    -27.528839    41.755985    6.127610    -22.599094    103.276497    17.145559    -25.232208    31.533470    53.114304    -32.522778    32.803673    -70.920555    58.724487    28.755089    2.495846    -25.159649    43.772797    0.000000    0.000000    0.000000    -50.216515    -31.322584    -29.868320    42.080307    73.728645    -37.677601    18.671886    -25.416323    12.833295    0.000000    0.000000    0.000000    
19.993032    124.829720    51.582653    8.271058    0.867192    -69.855888    0.285513    5.247340    -0.790391    -1.158585    -3.431385    -0.295257    19.278749    5.791531    13.652890    -14.769897    -3.143619    9.849633    11.554557    3.073898    -14.902079    -9.533509    -6.973177    -20.872322    17.815540    -1.911272    -42.237549    -3.623265    6.501416    -44.456795    -10.880095    -3.699908    -6.049969    30.276108    -27.555500    41.722866    6.178258    -22.526857    103.262932    17.134830    -25.222794    31.520077    52.548008    -32.357731    32.533333    -69.256699    58.445210    27.430483    2.257287    -24.839876    43.744240    0.000000    0.000000    0.000000    -49.684372    -31.131260    -29.636776    39.876839    73.148293    -35.640114    18.547693    -25.068567    12.493785    0.000000    0.000000    0.000000    
19.965570    125.609970    51.558929    8.281486    0.868497    -69.844635    0.271099    5.133338    -0.768281    -1.136691    -3.372270    -0.287093    19.229889    5.776264    13.644769    -14.720522    -3.139182    9.852235    11.554817    3.060069    -14.921659    -9.529073    -7.003290    -20.898432    17.729786    -1.865034    -42.270428    -3.643747    6.527141    -44.441013    -10.898085    -3.692683    -6.075266    30.203663    -27.502821    41.706921    6.150423    -22.627756    103.234222    17.178806    -25.275770    31.511568    51.972729    -32.195328    32.277828    -67.584846    58.173100    26.090837    2.010646    -24.540539    43.740662    0.000000    0.000000    0.000000    -49.173985    -30.933393    -29.366463    38.007404    72.486229    -33.895309    18.377121    -24.705969    12.110275    0.000000    0.000000    0.000000    
19.950605    126.379822    51.525635    8.327757    0.859717    -69.838486    0.229579    5.009551    -0.753339    -1.117496    -3.351518    -0.281984    19.220236    5.777575    13.640929    -14.722809    -3.109985    9.852697    11.543408    3.074230    -14.917642    -9.496873    -6.992643    -20.934671    17.686111    -1.837295    -42.286190    -3.671194    6.550781    -44.421780    -10.916511    -3.678570    -6.056338    30.155352    -27.509995    41.667423    6.158585    -22.642790    103.231361    17.174551    -25.305857    31.476768    51.400421    -32.044662    32.021656    -65.944092    57.837578    24.749241    1.768860    -24.215202    43.761097    0.000000    0.000000    0.000000    -48.669739    -30.784187    -29.187925    35.888248    71.895164    -32.114803    18.386694    -24.300226    11.964359    0.000000    0.000000    0.000000    
19.918406    127.165901    51.500656    8.314740    0.861546    -69.819099    0.234577    4.931979    -0.742116    -1.116500    -3.314263    -0.277773    19.236893    5.811293    13.625863    -14.775092    -3.149788    9.827317    11.537156    3.069730    -14.917119    -9.470440    -6.888455    -20.964417    17.738192    -1.905327    -42.277130    -3.744677    6.531715    -44.415802    -10.944958    -3.662080    -6.052100    30.134487    -27.529131    41.638973    6.179898    -22.648975    103.219414    17.159113    -25.333410    31.512981    50.811161    -31.870689    31.697643    -64.145744    57.421841    23.297441    1.495580    -23.802790    43.783089    0.000000    0.000000    0.000000    -48.120117    -30.556026    -28.964052    33.973213    71.223404    -30.466347    18.321123    -23.893158    11.720181    0.000000    0.000000    0.000000    
19.901947    127.935532    51.469963    8.364646    0.845327    -69.793266    0.194288    4.791076    -0.731379    -1.128896    -3.255650    -0.274601    19.226480    5.812148    13.621297    -14.743230    -3.178577    9.825480    11.570319    3.048847    -14.930743    -9.478766    -6.937060    -20.999767    17.734537    -1.791707    -42.288605    -3.791604    6.664131    -44.410561    -10.945081    -3.690481    -6.071728    30.082653    -27.487959    41.593384    6.152743    -22.694361    103.186531    17.220760    -25.318249    31.567142    50.207970    -31.748787    31.402258    -62.541992    57.052303    22.031872    1.208489    -23.499866    43.800266    0.000000    0.000000    0.000000    -47.652248    -30.373772    -28.764400    32.304569    70.545464    -28.970921    18.194355    -23.526190    11.389582    0.000000    0.000000    0.000000    
19.874317    128.721680    51.444698    8.371853    0.841421    -69.775192    0.212221    4.682735    -0.723488    -1.168530    -3.196951    -0.272275    19.255587    5.768229    13.629029    -14.772822    -3.107284    9.826919    11.566864    3.049984    -14.936378    -9.448229    -6.877684    -21.031460    17.804062    -1.814963    -42.264923    -3.797904    6.664230    -44.343987    -10.958873    -3.689927    -6.082924    30.045311    -27.487818    41.577713    6.181177    -22.680218    103.171555    17.218155    -25.333364    31.583548    49.606522    -31.587349    31.092516    -60.922569    56.664856    20.811436    0.918861    -23.169155    43.771992    0.000000    0.000000    0.000000    -47.130146    -30.138586    -28.579050    30.598726    69.824402    -27.429495    18.063595    -23.155760    11.049179    0.000000    0.000000    0.000000    
19.838078    129.521317    51.421440    8.323755    0.845058    -69.753296    0.249108    4.646228    -0.713557    -1.200663    -3.163100    -0.268799    19.244087    5.762976    13.625856    -14.739231    -3.116419    9.828345    11.566554    3.080339    -14.944371    -9.418792    -6.911095    -21.075521    17.768896    -1.831071    -42.264542    -3.808165    6.638484    -44.343975    -10.985265    -3.706489    -6.082736    30.029251    -27.499550    41.525604    6.202085    -22.642326    103.168274    17.188997    -25.330610    31.560247    49.004513    -31.395739    30.683203    -59.368000    56.217834    19.659517    0.607551    -22.841356    43.769558    0.000000    0.000000    0.000000    -46.558273    -29.841272    -28.321753    29.042330    69.035622    -26.028223    17.932146    -22.764898    10.718977    0.000000    0.000000    0.000000    
